<svg id="visual" viewBox="0 0 900 600" width="900" height="600" xmlns="http://www.w3.org/2000/svg" xmlns:xlink="http://www.w3.org/1999/xlink" version="1.1"><path d="M0 115L13.7 115C27.3 115 54.7 115 82 106C109.3 97 136.7 79 163.8 74C191 69 218 77 245.2 82C272.3 87 299.7 89 327 94C354.3 99 381.7 107 409 105C436.3 103 463.7 91 491 81C518.3 71 545.7 63 573 64C600.3 65 627.7 75 654.8 81C682 87 709 89 736.2 82C763.3 75 790.7 59 818 59C845.3 59 872.7 75 886.3 83L900 91L900 0L886.3 0C872.7 0 845.3 0 818 0C790.7 0 763.3 0 736.2 0C709 0 682 0 654.8 0C627.7 0 600.3 0 573 0C545.7 0 518.3 0 491 0C463.7 0 436.3 0 409 0C381.7 0 354.3 0 327 0C299.7 0 272.3 0 245.2 0C218 0 191 0 163.8 0C136.7 0 109.3 0 82 0C54.7 0 27.3 0 13.7 0L0 0Z" fill="#5e4eab"></path><path d="M0 211L13.7 225C27.3 239 54.7 267 82 278C109.3 289 136.7 283 163.8 285C191 287 218 297 245.2 287C272.3 277 299.7 247 327 246C354.3 245 381.7 273 409 282C436.3 291 463.7 281 491 263C518.3 245 545.7 219 573 208C600.3 197 627.7 201 654.8 216C682 231 709 257 736.2 268C763.3 279 790.7 275 818 262C845.3 249 872.7 227 886.3 216L900 205L900 89L886.3 81C872.7 73 845.3 57 818 57C790.7 57 763.3 73 736.2 80C709 87 682 85 654.8 79C627.7 73 600.3 63 573 62C545.7 61 518.3 69 491 79C463.7 89 436.3 101 409 103C381.7 105 354.3 97 327 92C299.7 87 272.3 85 245.2 80C218 75 191 67 163.8 72C136.7 77 109.3 95 82 104C54.7 113 27.3 113 13.7 113L0 113Z" fill="#49389b"></path><path d="M0 277L13.7 294C27.3 311 54.7 345 82 352C109.3 359 136.7 339 163.8 334C191 329 218 339 245.2 332C272.3 325 299.7 301 327 305C354.3 309 381.7 341 409 356C436.3 371 463.7 369 491 356C518.3 343 545.7 319 573 303C600.3 287 627.7 279 654.8 292C682 305 709 339 736.2 348C763.3 357 790.7 341 818 325C845.3 309 872.7 293 886.3 285L900 277L900 203L886.3 214C872.7 225 845.3 247 818 260C790.7 273 763.3 277 736.2 266C709 255 682 229 654.8 214C627.7 199 600.3 195 573 206C545.7 217 518.3 243 491 261C463.7 279 436.3 289 409 280C381.7 271 354.3 243 327 244C299.7 245 272.3 275 245.2 285C218 295 191 285 163.8 283C136.7 281 109.3 287 82 276C54.7 265 27.3 237 13.7 223L0 209Z" fill="#32238b"></path><path d="M0 355L13.7 369C27.3 383 54.7 411 82 434C109.3 457 136.7 475 163.8 478C191 481 218 469 245.2 453C272.3 437 299.7 417 327 416C354.3 415 381.7 433 409 436C436.3 439 463.7 427 491 416C518.3 405 545.7 395 573 386C600.3 377 627.7 369 654.8 382C682 395 709 429 736.2 451C763.3 473 790.7 483 818 474C845.3 465 872.7 437 886.3 423L900 409L900 275L886.3 283C872.7 291 845.3 307 818 323C790.7 339 763.3 355 736.2 346C709 337 682 303 654.8 290C627.7 277 600.3 285 573 301C545.7 317 518.3 341 491 354C463.7 367 436.3 369 409 354C381.7 339 354.3 307 327 303C299.7 299 272.3 323 245.2 330C218 337 191 327 163.8 332C136.7 337 109.3 357 82 350C54.7 343 27.3 309 13.7 292L0 275Z" fill="#272179"></path><path d="M0 601L13.7 601C27.3 601 54.7 601 82 601C109.3 601 136.7 601 163.8 601C191 601 218 601 245.2 601C272.3 601 299.7 601 327 601C354.3 601 381.7 601 409 601C436.3 601 463.7 601 491 601C518.3 601 545.7 601 573 601C600.3 601 627.7 601 654.8 601C682 601 709 601 736.2 601C763.3 601 790.7 601 818 601C845.3 601 872.7 601 886.3 601L900 601L900 407L886.3 421C872.7 435 845.3 463 818 472C790.7 481 763.3 471 736.2 449C709 427 682 393 654.8 380C627.7 367 600.3 375 573 384C545.7 393 518.3 403 491 414C463.7 425 436.3 437 409 434C381.7 431 354.3 413 327 414C299.7 415 272.3 435 245.2 451C218 467 191 479 163.8 476C136.7 473 109.3 455 82 432C54.7 409 27.3 381 13.7 367L0 353Z" fill="#1e1e67"></path></svg>